<!DOCTYPE svg PUBLIC "-//W3C//DTD SVG 1.1//EN" "http://www.w3.org/Graphics/SVG/1.1/DTD/svg11.dtd">
<!-- Uploaded to: SVG Repo, www.svgrepo.com, Transformed by: SVG Repo Mixer Tools -->
<svg fill="#000000" width="800px" height="800px" viewBox="0 0 24 24" id="sport-car-left" data-name="Line Color" xmlns="http://www.w3.org/2000/svg" class="icon line-color">
<g id="SVGRepo_bgCarrier" stroke-width="0"/>
<g id="SVGRepo_tracerCarrier" stroke-linecap="round" stroke-linejoin="round"/>
<g id="SVGRepo_iconCarrier">
<path id="primary" d="M4.91,15H4a1,1,0,0,1-1-1V11.72a1,1,0,0,1,.68-1L6,10,9.73,7.2a1,1,0,0,1,.6-.2h6.13a1,1,0,0,1,.84.45L19,10l1.45.72a1,1,0,0,1,.55.9V14a1,1,0,0,1-1,1h-.89" style="fill: none; stroke: #ffffff; stroke-linecap: round; stroke-linejoin: round; stroke-width: 2;"/>
<line id="primary-2" data-name="primary" x1="14.9" y1="15" x2="9.1" y2="15" style="fill: none; stroke: #ffffff; stroke-linecap: round; stroke-linejoin: round; stroke-width: 2;"/>
<path id="secondary" d="M15,15a2,2,0,1,0,2-2A2,2,0,0,0,15,15ZM5,15a2,2,0,1,0,2-2A2,2,0,0,0,5,15Z" style="fill: none; stroke: #ffffff; stroke-linecap: round; stroke-linejoin: round; stroke-width: 2;"/>
</g>
</svg>